<?xml version="1.0" standalone="no"?>
<!DOCTYPE svg PUBLIC "-//W3C//DTD SVG 20010904//EN"
 "http://www.w3.org/TR/2001/REC-SVG-20010904/DTD/svg10.dtd">
<svg version="1.0" xmlns="http://www.w3.org/2000/svg"
 width="300.000000pt" height="300.000000pt" viewBox="0 0 225.000000 225.000000"
 preserveAspectRatio="xMidYMid meet">

<g transform="translate(0.000000,225.000000) scale(0.100000,-0.100000)"
fill="#21243D" stroke="none">
<path d="M975 2239 c-367 -46 -713 -302 -871 -643 -81 -177 -116 -391 -95
-585 28 -260 126 -472 303 -657 106 -110 189 -172 313 -234 446 -221 970 -127
1315 236 422 445 409 1143 -31 1571 -250 244 -584 355 -934 312z m76 -814 c56
-74 105 -135 108 -135 4 0 60 61 124 135 l118 135 70 0 c38 0 69 -3 69 -6 0
-3 -69 -84 -152 -180 -84 -96 -153 -179 -153 -184 0 -4 81 -116 180 -246 99
-131 182 -242 183 -246 2 -5 -63 -7 -144 -6 l-148 3 -106 137 c-58 76 -110
142 -116 148 -7 7 -48 -34 -140 -139 l-129 -150 -73 0 c-41 -1 -72 3 -70 7 2
4 76 91 165 192 89 102 164 188 165 191 2 4 -76 109 -172 235 -96 125 -176
232 -178 236 -2 4 64 8 146 8 l151 0 102 -135z"/>
<path d="M831 1463 c0 -5 116 -159 258 -343 l257 -335 42 -3 42 -3 -176 233
c-97 128 -215 284 -262 346 -82 109 -86 112 -123 112 -22 0 -39 -3 -38 -7z"/>
</g>
</svg>
